<svg width="538" height="538" viewBox="0 0 538 538" fill="none" xmlns="http://www.w3.org/2000/svg">
<path d="M269 528C412.041 528 528 412.042 528 269C528 125.958 412.041 9.99982 269 9.99982C125.958 9.99982 9.99957 125.958 9.99957 269C9.99957 412.042 125.958 528 269 528Z" fill="#F1EBF8" stroke="#27222A" stroke-width="20"/>
<path d="M381 75.0101L336 482.746C278.295 500.818 213.496 495.607 157 462.99C49.8624 401.134 13.1544 264.137 75.0103 157C109.097 97.9607 166.001 60.3086 228.152 48.7516C278.785 39.3362 332.902 47.2405 381 75.0101Z" fill="#27222A"/>
<path d="M293 184.398L319.295 138.023L303.848 87L363.479 93.6414L352.631 191.039L293 184.398Z" fill="#F1EBF8"/>
<path d="M278 321.398L304.295 275.023L288.848 224L348.479 230.641L337.631 328.039L278 321.398Z" fill="#F1EBF8"/>
<path d="M263 458.398L289.295 412.023L273.848 361L333.479 367.641L322.631 465.039L263 458.398Z" fill="#F1EBF8"/>
</svg>
